<!DOCTYPE svg PUBLIC "-//W3C//DTD SVG 1.1//EN" "http://www.w3.org/Graphics/SVG/1.1/DTD/svg11.dtd">

<!-- Uploaded to: SVG Repo, www.svgrepo.com, Transformed by: SVG Repo Mixer Tools -->
<svg width="37px" height="37px" viewBox="0 0 24.00 24.00" fill="none" xmlns="http://www.w3.org/2000/svg" stroke="#5f2568">

<g id="SVGRepo_bgCarrier" stroke-width="0"/>

<g id="SVGRepo_tracerCarrier" stroke-linecap="round" stroke-linejoin="round"/>

<g id="SVGRepo_iconCarrier"> <path d="M21 12C21 16.9706 16.9706 21 12 21C7.02944 21 3 16.9706 3 12C3 7.02944 7.02944 3 12 3C16.9706 3 21 7.02944 21 12Z" stroke="#5f2568" stroke-width="0.4800000000000001" stroke-linecap="round" stroke-linejoin="round"/> <path d="M8.0365 12.2563C7.44115 12.0248 7.14348 11.909 7.05658 11.7422C6.98124 11.5976 6.98114 11.4254 7.0563 11.2807C7.14301 11.1138 7.44055 10.9977 8.03562 10.7654L14.4234 8.27265C14.9605 8.06302 15.2291 7.9582 15.4008 8.01554C15.5498 8.06533 15.6668 8.1823 15.7166 8.33135C15.7739 8.50298 15.6691 8.77157 15.4595 9.30874L12.9667 15.6965C12.7345 16.2916 12.6184 16.5891 12.4514 16.6758C12.3068 16.751 12.1345 16.7509 11.9899 16.6755C11.8231 16.5886 11.7073 16.291 11.4758 15.6956L10.6404 13.5474C10.5934 13.4265 10.5699 13.3661 10.5336 13.3152C10.5014 13.2701 10.462 13.2307 10.4169 13.1985C10.366 13.1622 10.3056 13.1387 10.1847 13.0917L8.0365 12.2563Z" stroke="#5f2568" stroke-width="0.4800000000000001" stroke-linecap="round" stroke-linejoin="round"/> </g>

</svg>