<?xml version="1.0" encoding="utf-8"?><!-- Uploaded to: SVG Repo, www.svgrepo.com, Generator: SVG Repo Mixer Tools -->
<svg fill="#000000" width="800px" height="800px" viewBox="0 0 24 24" id="work-agenda-left" data-name="Flat Line" xmlns="http://www.w3.org/2000/svg" class="icon flat-line"><path id="secondary" d="M19,3H7V21H19a1,1,0,0,0,1-1V4A1,1,0,0,0,19,3Z" style="fill: rgb(44, 169, 188); stroke-width: 2;"></path><path id="primary" d="M19,21H4a1,1,0,0,1-1-1V4A1,1,0,0,1,4,3H19a1,1,0,0,1,1,1V20A1,1,0,0,1,19,21ZM21,8H19m2,4H19m2,4H19M7,3H4A1,1,0,0,0,3,4V20a1,1,0,0,0,1,1H7Z" style="fill: none; stroke: rgb(0, 0, 0); stroke-linecap: round; stroke-linejoin: round; stroke-width: 2;"></path></svg>